<?xml version="1.0" encoding="utf-8"?>
<!-- Generator: Adobe Illustrator 23.0.3, SVG Export Plug-In . SVG Version: 6.00 Build 0)  -->
<svg version="1.1" id="Calque_1" xmlns="http://www.w3.org/2000/svg" xmlns:xlink="http://www.w3.org/1999/xlink" x="0px" y="0px"
	 viewBox="0 0 2500 2500" style="enable-background:new 0 0 2500 2500;" xml:space="preserve">
<style type="text/css">
	.st0{fill-rule:evenodd;clip-rule:evenodd;}
</style>
<path class="st0" d="M422.1,1248.2c12.5,0,17.9,12.5,17.9,32.2v136.2c0,71.7-35.8,73.5-50.2,66.3c-17.9-9-21.5-39.4-21.5-68.1
	v-134.4c0-19.7,7.2-32.2,19.7-32.2v-7.2h-73.5v7.2c12.5,0,17.9,12.5,17.9,32.2v148.8c0,26.9,16.1,69.9,53.8,73.5
	c37.6,1.8,62.7-21.5,62.7-87.8v-134.4c0-19.7,7.2-32.2,17.9-32.2v-7.2h-44.8L422.1,1248.2L422.1,1248.2z M552.9,1241H483v7.2
	c12.5,0,19.7,12.5,19.7,32.2v175.6c0,19.7-7.2,32.2-19.7,32.2v7.2h75.3c16.1,0,32.3-9,48.4-28.7c25.1-34,32.3-107.5,19.7-152.3
	C613.8,1257.2,585.2,1241,552.9,1241L552.9,1241z M588.7,1434.6c-3.6,17.9-9,50.2-41.2,50.2c-9,0-9-3.6-9-23.3v-186.4
	c0-19.7,0-21.5,9-21.5c12.5,0,21.5-1.8,32.2,19.7C597.7,1307.3,597.7,1389.8,588.7,1434.6L588.7,1434.6z M1128.1,1110.2h-26.9
	l35.8-89.6h69.9v89.6h-32.3v14.3h195.3v-14.3h-32.3V979.4h48.4c17.9,0,32.3-16.1,32.3-30.5V823.5c0-10.8-12.6-28.7-34.1-28.7h-209.7
	v14.3h25.1l-116.5,301.1h-25.1v14.3h69.9L1128.1,1110.2L1128.1,1110.2z M1337.8,809.2h23.3c5.4,0,8.9,3.6,8.9,9v138
	c0,5.4-3.6,8.9-8.9,8.9h-23.3V809.2L1337.8,809.2z M1253.6,809.2h37.6v301.1h-37.6V809.2z M1207,837.8v166.6h-66.3L1207,837.8z
	 M703.4,1484.8c-10.8-1.8-12.5-7.2-12.5-25.1v-86c25.1,1.8,30.5,8.9,37.6,55.5h3.6v-123.7h-3.6c-7.2,46.6-12.5,52-37.6,55.5v-86
	c0-19.7,1.8-23.3,9-21.5h19.7c35.8,1.8,37.6,52,39.4,64.5h5.4v-77H637.1v7.2c10.8,0,17.9,12.5,17.9,32.2v175.6
	c0,19.7-7.2,32.2-17.9,32.2v7.2h129l9-77.1h-5.4C753.6,1472.2,735.7,1488.3,703.4,1484.8L703.4,1484.8z M296.7,1189.1l-75.3-1.8
	v14.3h23.3l-109.3,283.1h-25.1v14.3h66.3v-14.3h-26.9l34.1-84.2h66.3v84.2h-30.5v14.3h105.7v-14.3h-28.7V1189.1z M250.1,1389.8
	h-60.9l60.9-157.7V1389.8z M1646,1187.3h-118.3v14.3h28.7v283.1h-32.3v14.3h109.3v-14.3H1603v-123.7h46.6
	c16.1,0,28.7-16.1,28.7-26.8v-120.1C1678.3,1205.2,1667.5,1187.3,1646,1187.3L1646,1187.3z M1633.5,1339.6c0,5.4-3.6,9-8.9,9H1603
	v-146.9h21.5c5.4,0,8.9,3.6,8.9,7.2V1339.6z M1868.2,1388c12.5,0,17.9,12.5,17.9,32.2v48.4c0,5.4,0,14.3-9,19.7
	c-5.4,3.6-12.5,3.6-17.9,3.6c-3.6,0-8.9,0-12.5-5.4c-10.8-7.2-16.1-21.5-21.5-46.6c-3.6-16.1-5.4-43-5.4-69.9
	c0-28.7,1.8-55.5,5.4-71.7c5.4-25.1,10.8-39.4,21.5-46.6c3.6-3.6,9-5.4,12.5-5.4c14.3,0,46.6,25.1,57.4,80.6h5.4v-89.6h-5.4
	c-3.6,7.2-3.6,19.7-16.1,16.1c-7.2-3.6-21.5-14.3-41.2-16.1c-14.3,0-30.5,7.2-44.8,23.3c-21.5,21.5-32.2,64.5-32.2,109.3
	c0,43,10.8,86,32.2,109.3c14.3,14.4,30.5,23.3,44.8,23.3c7.2,0,14.3,0,21.5-1.8c5.4-1.8,35.8-8.9,41.2-17.9v-62.7
	c0-19.7,7.2-32.2,19.7-32.2v-7.2h-73.5L1868.2,1388L1868.2,1388L1868.2,1388z M2049.2,1248.2c12.5,0,17.9,12.5,17.9,32.2v136.2
	c0,71.7-35.8,73.5-50.2,66.3c-17.9-9-21.5-39.4-21.5-68.1v-134.4c0-19.7,7.2-32.2,19.7-32.2v-7.2h-73.5v7.2
	c12.5,0,17.9,12.5,17.9,32.2v148.8c0,26.9,16.1,69.9,53.8,73.5c37.6,1.8,62.7-21.5,62.7-87.8v-134.4c0-19.7,7.2-32.2,17.9-32.2v-7.2
	h-44.8V1248.2z M2180,1484.8c-12.6-1.8-12.6-7.2-12.6-25.1v-86c25.1,1.8,28.7,8.9,35.8,55.5h5.4v-123.7h-5.4
	c-7.2,46.6-10.7,52-35.8,55.5v-86c0-19.7,1.8-23.3,9-21.5h19.7c35.8,1.8,37.6,52,39.4,64.5h3.6v-77h-127.2v7.2
	c12.5,0,19.7,12.5,19.7,32.2v175.6c0,19.7-7.2,32.2-19.7,32.2v7.2h129l10.7-77.1h-7.2C2228.4,1472.2,2212.3,1488.3,2180,1484.8
	L2180,1484.8z M2255.3,1241v75.3h5.4c1.8-9,1.8-26.9,12.5-46.6c12.5-21.5,26.9-16.1,32.3-16.1v202.5c0,19.7-7.2,32.2-17.9,32.2v7.2
	h71.7v-7.2c-10.8,0-17.9-12.5-17.9-32.2v-202.5c5.4,0,19.7-5.4,32.3,16.1c10.8,19.7,10.8,37.6,12.5,46.6h3.6V1241L2255.3,1241
	L2255.3,1241z M893.4,1414.9L846.8,1241h-62.7v7.2c16.1,0,21.5,5.4,21.5,32.2v175.6c0,19.7-5.4,32.2-19.7,32.2v7.2h50.2v-7.2
	c-12.5,0-19.7-12.5-19.7-32.2v-182.8l60.9,222.2h5.4l62.7-222.2v182.8c0,19.7-7.2,32.2-19.7,32.2v7.2h78.8v-7.2
	c-12.5,0-19.7-12.5-19.7-32.2v-175.6c0-19.7,7.2-32.2,19.7-32.2v-7.2h-60.9L893.4,1414.9L893.4,1414.9z M1321.7,1474l-43-103.9
	c12.5-5.4,23.3-14.3,30.5-34c9-23.3,3.6-53.8-5.4-69.9c-12.5-19.7-34-25.1-52-25.1h-69.9v7.2c10.8,0,17.9,12.5,17.9,32.2v175.6
	c0,19.7-7.2,32.2-17.9,32.2h1.8v7.2h69.9v-7.2c-10.8,0-17.9-12.5-17.9-32.2v-78.9h5.4l46.6,118.3h44.8v-7.2
	C1328.8,1488.3,1327,1490.1,1321.7,1474L1321.7,1474z M1275.1,1336c-7.2,34-28.7,28.7-39.4,28.7v-95c0-10.8,5.4-16.1,8.9-16.1
	c17.9-3.6,25.1,9,28.7,23.3C1276.9,1285.8,1278.7,1318.1,1275.1,1336L1275.1,1336z M1153.2,1470.4l-57.4-229.4h-5.4l-55.5,222.2
	c-5.4,21.5-10.8,25.1-16.1,25.1v7.2h44.8v-7.2c-16.1,0-21.5-12.5-16.1-32.2l7.2-34h52l10.8,43c3.6,19.7-10.8,23.3-19.7,23.3v7.2
	h69.9v-7.2C1164,1488.3,1156.8,1486.5,1153.2,1470.4L1153.2,1470.4z M1058.3,1407.7l21.5-93.2l23.3,93.2H1058.3L1058.3,1407.7z
	 M1696.2,1248.2c14.3,0,21.5,12.5,21.5,32.2v175.6c0,19.7-7.2,32.2-21.5,32.2v7.2h77.1v-7.2c-14.3,0-19.7-12.5-19.7-32.2v-175.6
	c0-19.7,5.4-32.2,19.7-32.2v-7.2h-77.1V1248.2z M1413.1,1341.4c-28.7-14.3-37.6-34-37.6-50.2c0-9,3.6-41.2,25.1-41.2
	c32.3,0,43,50.2,48.4,69.9h5.4v-82.4h-5.4c-3.6,7.2-3.6,12.5-8.9,12.5c-12.6,0-23.3-12.5-48.4-12.5c-21.5,0-46.6,19.7-46.6,69.9
	c0,23.3,7.2,55.6,35.8,75.3c39.4,28.7,53.8,39.4,53.8,60.9c0,8.9-3.6,46.6-35.8,46.6c-23.3,0-39.4-37.6-41.2-52l-5.4-26.9h-5.4v91.4
	h5.4c0-7.2,1.8-12.5,3.6-12.5c12.6,0,34.1,12.5,48.4,12.5c53.8,0,62.7-48.4,62.7-73.5C1466.8,1393.4,1450.7,1361.1,1413.1,1341.4
	L1413.1,1341.4z M115.7,1674.7c10.8,0,12.5-3.6,14.3-12.5l12.5-60.9c0-1.8,1.8-3.6,1.8-5.4c0-5.4-5.4-7.2-10.8-7.2v-3.6h35.8v3.6
	c-10.8,0-12.5,3.6-14.3,12.5l-12.5,60.9v5.4c0,3.6,1.8,3.6,9,3.6h9c10.7,0,16.1-3.6,19.7-14.3h1.8l-3.6,19.7h-62.7V1674.7
	L115.7,1674.7z M212.4,1635.3c1.8-7.2,7.2-17.9,16.1-17.9c5.4,0,8.9,3.6,8.9,7.2c0,8.9-7.2,10.7-12.6,10.7H212.4z M239.3,1671.1
	c-3.6,1.8-5.4,1.8-9,1.8c-16.1,0-19.7-8.9-19.7-19.7c0-5.4,0-10.8,1.8-14.4h14.3c10.8,0,21.5-1.8,21.5-12.5c0-9-8.9-14.3-17.9-14.3
	c-23.3,0-32.3,25.1-32.3,43c0,16.1,9,23.3,21.5,23.3c9,0,16.1-1.8,19.7-3.6V1671.1L239.3,1671.1z M321.8,1628.1v-5.4
	c0,0,0-1.8-1.8-1.8c-1.8,0-7.2,5.4-10.8,9h-1.8c3.6-5.4,14.3-17.9,19.7-17.9c3.6,0,5.4,3.6,5.4,7.2v8.9l-3.6,17.9v1.8
	c3.6-10.7,14.3-35.8,28.7-35.8c5.4,0,9,3.6,9,8.9c0,3.6-1.8,5.4-1.8,9l-3.6,16.1v1.8c5.4-10.7,16.1-35.8,30.5-35.8
	c5.4,0,7.2,3.6,7.2,8.9v9l-9,34v3.6c0,1.8,0,1.8,1.8,1.8c1.8,0,7.2-5.4,10.8-9l1.8,1.8c-3.6,3.6-14.3,16.1-19.7,16.1
	c-3.6,0-5.4-1.8-5.4-5.4v-8.9l9-34v-5.4c0-1.8,0-3.6-3.6-3.6c-9,0-26.9,43-28.7,55.5H345l8.9-46.6v-5.4c0-1.8,0-3.6-1.8-3.6
	c-9,0-23.3,26.9-30.5,55.5H311L321.8,1628.1L321.8,1628.1z M429.3,1660.4c0-14.3,10.8-43,25.1-43c3.6,0,5.4,5.4,5.4,9
	c0,16.1-12.5,44.8-23.3,44.8C432.9,1671.1,429.3,1669.3,429.3,1660.4z M452.6,1664v8.9c0,1.8,1.8,5.4,5.4,5.4
	c5.4,0,16.1-12.5,19.7-16.1l-1.8-1.8c-3.6,3.6-9,9-10.8,9c-1.8,0-1.8,0-1.8-1.8v-3.6l10.8-50.2h-10.8l-1.8,7.2
	c-1.8-3.6-3.6-8.9-10.8-8.9c-19.7,0-32.3,35.8-32.3,50.2c0,7.2,1.8,16.1,12.5,16.1c12.6,0,19.7-16.1,23.3-21.5L452.6,1664
	L452.6,1664z M509.9,1586.9c3.6-3.6,5.4-5.4,7.2-5.4s3.6,1.8,5.4,5.4l7.2,16.1h-5.4l-9-9l-14.3,9h-5.4L509.9,1586.9L509.9,1586.9z
	 M522.4,1662.2c-3.6,3.6-14.3,16.1-19.7,16.1c-3.6,0-5.4-1.8-5.4-5.4v-8.9l7.2-35.8c1.8-1.8,1.8-3.6,1.8-5.4c0-1.8-1.8-1.8-1.8-1.8
	c-1.8,0-9,5.4-12.6,9h-1.8c5.4-5.4,14.3-17.9,21.5-17.9c3.6,0,5.4,3.6,5.4,7.2c0,1.8,0,5.4-1.8,8.9l-7.2,35.8v3.6
	c0,1.8,0,1.8,1.8,1.8c1.8,0,7.2-5.4,10.8-9L522.4,1662.2L522.4,1662.2z M569,1662.2c-5.4,5.4-16.1,16.1-23.3,16.1
	c-3.6,0-5.4-1.8-5.4-5.4c0-3.6,0-7.1,1.8-8.9l9-44.8h-12.5l1.8-5.4c12.5,0,19.7-5.4,23.3-19.7h3.6l-5.4,19.7h17.9v5.4h-17.9l-9,44.8
	c0,1.8-1.8,3.6-1.8,3.6c0,1.8,1.8,1.8,1.8,1.8c3.6,0,10.8-5.4,14.3-9L569,1662.2L569,1662.2z M599.5,1628.1v-5.4c0,0,0-1.8-1.8-1.8
	c-1.8,0-7.2,5.4-10.8,9h-1.8c3.6-5.4,12.5-17.9,19.7-17.9c3.6,0,5.4,3.6,5.4,7.2v8.9l-1.8,9c1.8-5.4,8.9-25.1,19.7-25.1
	c5.4,0,7.2,3.6,7.2,7.2c0,3.6-3.6,7.1-7.2,7.1c-1.8,0-3.6-1.8-5.4-1.8c-3.6,0-16.1,16.1-23.3,52h-10.8L599.5,1628.1L599.5,1628.1z
	 M656.9,1635.3c0-7.2,5.4-17.9,16.1-17.9c5.4,0,9,3.6,9,7.2c0,8.9-9,10.7-14.3,10.7H656.9L656.9,1635.3z M683.7,1671.1
	c-2.8,1.3-5.9,1.9-9,1.8c-17.9,0-21.5-8.9-21.5-19.7c0-5.4,1.8-10.8,1.8-14.4h14.3c10.8,0,23.3-1.8,23.3-12.5c0-9-9-14.3-17.9-14.3
	c-25.1,0-34,25.1-34,43c0,16.1,9,23.3,23.3,23.3c9,0,14.3-1.8,17.9-3.6L683.7,1671.1L683.7,1671.1z M762.6,1660.4
	c0-12.5,8.9-43,23.3-43c3.6,0,7.2,3.6,7.2,9c0,12.5-12.5,44.8-25.1,44.8C766.2,1671.1,762.6,1669.3,762.6,1660.4L762.6,1660.4z
	 M785.9,1664c-1.8,1.8-1.8,5.4-1.8,8.9c0,1.8,1.8,5.4,5.4,5.4c7.2,0,17.9-12.5,21.5-16.1l-1.8-1.8c-3.6,3.6-9,9-12.6,9
	c0,0-1.8,0-1.8-1.8c0,0,0-1.8,1.8-3.6l16.1-82.4l-23.3,1.8v3.6c5.4,0,9,0,9,5.4v5.4l-3.6,21.5c-1.8-3.6-5.4-7.2-12.5-7.2
	c-17.9,0-32.3,35.8-32.3,50.2c0,7.2,1.8,16.1,12.5,16.1c12.6,0,21.5-17.9,23.3-23.3h1.8L785.9,1664L785.9,1664z M839.6,1635.3
	c1.8-7.2,7.2-17.9,17.9-17.9c3.6,0,7.2,3.6,7.2,7.2c0,8.9-7.2,10.7-12.5,10.7H839.6L839.6,1635.3z M866.5,1671.1
	c-1.8,1.8-5.4,1.8-9,1.8c-16.1,0-19.7-8.9-19.7-19.7c0-5.4,0-10.8,1.8-14.4H854c10.8,0,21.5-1.8,21.5-12.5c0-9-7.2-14.3-16.1-14.3
	c-25.1,0-34,25.1-34,43c0,16.1,9,23.3,21.5,23.3c9,0,16.1-1.8,19.7-3.6L866.5,1671.1L866.5,1671.1z M963.3,1662.2
	c-3.6,3.6-12.5,16.1-19.7,16.1c-3.6,0-5.4-1.8-5.4-5.4v-8.9l14.3-66.3v-5.4c0-5.4-3.6-5.4-10.8-5.4l1.8-3.6l21.5-1.8l-16.1,82.4v3.6
	c0,1.8,0,1.8,1.8,1.8c1.8,0,7.2-5.4,10.8-9L963.3,1662.2L963.3,1662.2z M990.2,1613.8c3.6-1.8,8.9-7.2,8.9-12.5c0-3.6-5.4-1.8-5.4-9
	c0-3.6,3.6-7.2,9-7.2c3.6,0,7.2,3.6,7.2,9c0,9-10.8,16.1-14.3,19.7L990.2,1613.8L990.2,1613.8z M1038.5,1597.7v-5.4
	c0-5.4-3.6-5.4-10.8-5.4l1.8-3.6l23.3-1.8l-14.3,68.1c5.4-12.5,17.9-37.6,30.5-37.6c5.4,0,9,3.6,9,8.9c0,1.8-1.8,5.4-1.8,9l-7.2,34
	c0,1.8-1.8,3.6-1.8,3.6c0,1.8,1.8,1.8,1.8,1.8c3.6,0,9-5.4,12.5-9l1.8,1.8c-3.6,3.6-14.3,16.1-21.5,16.1c-3.6,0-5.4-1.8-5.4-5.4
	c0-3.6,0-7.1,1.8-8.9l7.2-34c0-1.8,1.8-3.6,1.8-5.4c-0.1-1.9-1.7-3.5-3.6-3.6c-10.7,0-26.9,41.2-30.5,55.5h-10.8L1038.5,1597.7
	L1038.5,1597.7z M1112,1658.6c0-12.6,5.4-41.2,19.7-41.2c7.2,0,9,5.4,9,14.4c0,12.5-5.4,43-19.7,43
	C1115.6,1674.7,1112,1669.3,1112,1658.6z M1121,1678.3c21.5,0,32.3-23.3,32.3-41.2c0-14.3-5.4-25.1-21.5-25.1
	c-21.5,0-32.3,25.1-32.3,43C1099.5,1667.5,1106.6,1678.3,1121,1678.3z M1180.1,1628.1c0-1.8,1.8-3.6,1.8-5.4l-1.8-1.8
	c-3.6,0-9,5.4-12.5,9h-1.8c3.6-5.4,14.3-17.9,21.5-17.9c3.6,0,5.4,3.6,5.4,7.2c0,1.8,0,5.4-1.8,8.9l-1.8,9
	c3.6-5.4,10.8-25.1,21.5-25.1c3.6,0,5.4,3.6,5.4,7.2c0,3.6-1.8,7.1-5.4,7.1c-3.6,0-5.4-1.8-7.2-1.8c-3.6,0-14.3,16.1-21.5,52h-10.8
	L1180.1,1628.1L1180.1,1628.1z M1250,1662.2c-3.6,3.6-12.5,16.1-19.7,16.1c-3.6,0-5.4-1.8-5.4-5.4v-8.9l14.3-66.3v-5.4
	c0-5.4-3.6-5.4-10.8-5.4l1.8-3.6l21.5-1.8l-16.1,82.4v3.6c0,1.8,0,1.8,1.8,1.8c1.8,0,7.2-5.4,10.8-9L1250,1662.2L1250,1662.2z
	 M1276.9,1658.6c0-12.6,7.2-41.2,21.5-41.2c5.4,0,9,5.4,9,14.4c0,12.5-5.4,43-19.7,43C1282.2,1674.7,1276.9,1669.3,1276.9,1658.6
	L1276.9,1658.6z M1287.6,1678.3c19.7,0,32.3-23.3,32.3-41.2c0-14.3-7.2-25.1-21.5-25.1c-21.5,0-32.2,25.1-32.2,43
	C1266.1,1667.5,1271.5,1678.3,1287.6,1678.3z M1346.8,1660.4c0-14.3,10.8-43,23.3-43c1.8,0,7.2,1.8,7.2,9
	c0,12.5-12.6,44.8-25.1,44.8C1348.6,1671.1,1346.8,1669.3,1346.8,1660.4z M1389.8,1613.8H1379v5.4c-1.8-3.6-5.4-7.2-10.7-7.2
	c-19.7,0-34,35.8-34,50.2c0,7.2,1.8,16.1,12.5,16.1c14.3,0,21.5-16.1,23.3-23.3h1.8l-5.4,23.3c-1.8,7.2-5.4,23.3-16.1,23.3
	c-8.9,0-7.2-10.7-14.3-10.7c-3.6,0-7.2,3.6-7.2,7.2c0,5.4,7.2,7.2,16.1,7.2c23.3,0,28.7-12.5,32.2-26.9L1389.8,1613.8L1389.8,1613.8
	z M1418.5,1635.3c1.8-7.2,7.2-17.9,17.9-17.9c3.6,0,7.2,3.6,7.2,7.2c0,8.9-7.2,10.7-12.5,10.7H1418.5L1418.5,1635.3z M1445.3,1671.1
	c-1.8,1.8-5.4,1.8-8.9,1.8c-16.1,0-19.7-8.9-19.7-19.7c0-5.4,0-10.8,1.8-14.4h14.3c10.8,0,21.5-1.8,21.5-12.5
	c0-9-7.2-14.3-16.1-14.3c-25.1,0-34,25.1-34,43c0,16.1,8.9,23.3,21.5,23.3c8.9,0,16.1-1.8,19.7-3.6L1445.3,1671.1L1445.3,1671.1z
	 M1481.1,1628.1v-5.4c0,0,0-1.8-1.8-1.8c-1.8,0-8.9,5.4-12.5,9h-1.8c5.4-5.4,14.3-17.9,21.5-17.9c3.6,0,5.4,3.6,5.4,7.2
	c0,1.8,0,5.4-1.8,8.9l-1.8,9c3.6-5.4,10.8-25.1,21.5-25.1c3.6,0,7.2,3.6,7.2,7.2c0,3.6-3.6,7.1-7.2,7.1c-3.6,0-3.6-1.8-5.4-1.8
	c-3.6,0-16.1,16.1-23.3,52h-10.7L1481.1,1628.1L1481.1,1628.1z M1552.8,1662.2c-3.6,3.6-14.3,16.1-21.5,16.1c-3.6,0-5.4-1.8-5.4-5.4
	c0-3.6,1.8-7.1,1.8-8.9l7.2-35.8v-7.2c-3.6,0-9,5.4-12.5,9h-1.8c3.6-5.4,14.3-17.9,21.5-17.9c1.8,0,5.4,3.6,5.4,7.2
	c0,1.8-1.8,5.4-1.8,8.9l-7.2,35.8c0,1.8-1.8,3.6-1.8,3.6c0,1.8,1.8,1.8,1.8,1.8c3.6,0,8.9-5.4,12.5-9L1552.8,1662.2L1552.8,1662.2z
	 M1536.7,1592.3c0-3.6,3.6-7.2,9-7.2c3.6,0,7.2,3.6,7.2,7.2c0,3.6-3.6,7.2-7.2,7.2C1540.3,1599.4,1536.7,1595.9,1536.7,1592.3z
	 M1583.3,1635.3c0-7.2,5.4-17.9,16.1-17.9c5.4,0,9,3.6,9,7.2c0,8.9-9,10.7-14.3,10.7H1583.3L1583.3,1635.3z M1610.2,1671.1
	c-3.6,1.8-7.2,1.8-8.9,1.8c-17.9,0-21.5-8.9-21.5-19.7c0-5.4,1.8-10.8,1.8-14.4h14.3c10.8,0,23.3-1.8,23.3-12.5
	c0-9-9-14.3-17.9-14.3c-25.1,0-34.1,25.1-34.1,43c0,16.1,8.9,23.3,23.3,23.3c8.9,0,14.3-1.8,17.9-3.6L1610.2,1671.1L1610.2,1671.1z
	 M1689,1660.4c0-12.5,8.9-43,23.3-43c3.6,0,7.2,3.6,7.2,9c0,12.5-12.6,44.8-25.1,44.8C1692.6,1671.1,1689,1669.3,1689,1660.4z
	 M1712.3,1664c-1.8,1.8-1.8,5.4-1.8,8.9c0,1.8,1.8,5.4,5.4,5.4c7.2,0,16.1-12.5,21.5-16.1l-1.8-1.8c-3.6,3.6-10.7,9-12.5,9
	c0,0-1.8,0-1.8-1.8c0,0,0-1.8,1.8-3.6l16.1-82.4l-23.3,1.8v3.6c5.4,0,9,0,9,5.4v5.4l-3.6,21.5c-1.8-3.6-5.4-7.2-12.6-7.2
	c-17.9,0-32.3,35.8-32.3,50.2c0,7.2,1.8,16.1,12.6,16.1c12.6,0,21.5-17.9,23.3-23.3h1.8L1712.3,1664L1712.3,1664z M1766.1,1635.3
	c1.8-7.2,7.2-17.9,16.1-17.9c5.4,0,8.9,3.6,8.9,7.2c0,8.9-7.2,10.7-12.5,10.7H1766.1z M1793,1671.1c-1.8,1.8-5.4,1.8-8.9,1.8
	c-16.1,0-19.7-8.9-19.7-19.7c0-5.4,0-10.8,1.8-14.4h14.3c10.8,0,21.5-1.8,21.5-12.5c0-9-7.2-14.3-16.1-14.3
	c-25.1,0-34.1,25.1-34.1,43c0,16.1,9,23.3,21.5,23.3c9,0,16.1-1.8,19.7-3.6L1793,1671.1L1793,1671.1z M1830.6,1665.8
	c0-16.1,12.5-46.6,25.1-46.6c3.6,0,5.4,5.4,5.4,10.7c0,16.1-10.8,44.8-23.3,44.8C1832.4,1674.7,1830.6,1669.3,1830.6,1665.8z
	 M1798.3,1705.2h35.8v-1.8c-5.4,0-10.8,0-10.8-7.2c0-1.8,0-3.6,1.8-5.4l1.8-17.9h1.8c1.8,3.6,3.6,5.4,10.8,5.4
	c19.7,0,34-32.3,34-50.2c0-10.8-5.4-16.1-12.5-16.1c-12.5,0-23.3,17.9-25.1,21.5l1.8-5.4v-8.9c0-3.6-1.8-7.2-5.4-7.2
	c-7.2,0-16.1,12.5-21.5,17.9h3.6c1.8-3.6,9-9,10.8-9c1.8,0,1.8,1.8,1.8,1.8v5.4l-12.6,62.7c-1.8,9-5.4,12.5-16.1,12.5L1798.3,1705.2
	L1798.3,1705.2L1798.3,1705.2z M1931,1647.8c-5.4,16.1-17.9,30.5-28.7,30.5c-5.4,0-8.9-3.6-8.9-10.8c0-1.8,1.8-7.2,1.8-10.7
	l7.2-28.7v-7.2c-3.6,0-8.9,5.4-12.6,9h-1.8c3.6-5.4,14.3-17.9,21.5-17.9c3.6,0,5.4,3.6,5.4,7.2c0,1.8-1.8,5.4-1.8,8.9l-7.2,32.2
	c0,1.8-1.8,5.4-1.8,5.4c0,1.8,1.8,3.6,3.6,3.6c8.9,0,28.7-30.5,30.5-55.5h10.8l-10.8,50.2v3.6c0,1.8,0,1.8,1.8,1.8
	c1.8,0,9-5.4,12.6-9l1.8,1.8c-5.4,3.6-14.3,16.1-21.5,16.1c-3.6,0-5.4-1.8-5.4-5.4c0-3.6,0-7.1,1.8-8.9L1931,1647.8L1931,1647.8z
	 M1999,1662.2c-5.4,3.6-14.3,16.1-21.5,16.1c-3.6,0-5.4-1.8-5.4-5.4c0-3.6,0-7.1,1.8-8.9l7.2-35.8v-5.4c0,0,0-1.8-1.8-1.8
	c-1.8,0-7.2,5.4-10.7,9h-1.8c3.6-5.4,14.3-17.9,19.7-17.9c3.6,0,5.4,3.6,5.4,7.2v8.9l-7.2,35.8c-1.8,1.8-1.8,3.6-1.8,3.6
	c0,1.8,1.8,1.8,1.8,1.8c1.8,0,9-5.4,12.6-9L1999,1662.2L1999,1662.2z M1982.9,1592.3c0-3.6,3.6-7.2,7.2-7.2c5.4,0,8.9,3.6,8.9,7.2
	c0,3.6-3.6,7.2-8.9,7.2C1986.5,1599.4,1982.9,1595.9,1982.9,1592.3z M2052.8,1629.9c0-7.2-3.6-12.6-12.6-12.6
	c-5.4,0-10.8,3.6-10.8,10.8c0,12.6,23.3,10.7,23.3,28.7c0,16.1-12.6,21.5-28.7,21.5c-7.2,0-12.5-1.8-14.3-1.8l1.8-16.1h3.6
	c0,5.4,1.8,14.3,12.5,14.3c7.2,0,14.3-5.4,14.3-14.3c0-12.5-23.3-12.5-23.3-28.7c0-12.5,10.7-19.7,23.3-19.7
	c7.2,0,12.6,1.8,16.1,3.6l-1.8,14.3L2052.8,1629.9L2052.8,1629.9L2052.8,1629.9z M2104.8,1674.7c10.8,0,12.6-3.6,16.1-12.5l9-44.8
	v-10.7c0-3.6-1.8-5.4-7.2-5.4h-5.4v-1.8l19.7-5.4h7.2l-12.5,68.1c-1.8,1.8-1.8,3.6-1.8,5.4c0,5.4,5.4,7.2,8.9,7.2v1.8H2103
	L2104.8,1674.7L2104.8,1674.7z M2183.6,1617.3c0-7.1,3.6-19.7,16.1-19.7c5.4,0,10.8,3.6,10.8,12.5c0,10.7-5.4,19.7-16.1,19.7
	C2187.2,1629.9,2183.6,1626.3,2183.6,1617.3z M2187.2,1678.3c17.9,0,28.7-10.8,28.7-26.9c0-12.5-7.2-16.1-12.6-17.9
	c10.8-1.8,19.7-7.2,19.7-23.3c0-12.5-8.9-17.9-21.5-17.9c-17.9,0-30.5,9-30.5,23.3c0,10.7,5.4,14.3,10.7,17.9
	c-10.7,0-19.7,10.8-19.7,25.1C2162.1,1672.9,2171.1,1678.3,2187.2,1678.3L2187.2,1678.3z M2174.7,1660.4c0-12.5,5.4-25.1,16.1-25.1
	c7.2,0,14.3,5.4,14.3,14.3c0,12.5-5.4,23.3-17.9,23.3C2178.2,1672.9,2174.7,1667.5,2174.7,1660.4L2174.7,1660.4z M2284,1599.4h-25.1
	c-10.8,0-12.6,5.4-14.3,12.6h-3.6l3.6-17.9h52v5.4l-48.4,77.1h-12.5L2284,1599.4z M2316.2,1629.9c1.8-1.8,5.4-3.6,14.3-3.6
	c14.3,0,21.5,9,21.5,21.5c0,14.3-10.8,30.5-34,30.5c-12.5,0-21.5-3.6-25.1-3.6l1.8-5.4c1.8,0,9,3.6,17.9,3.6
	c16.1,0,26.9-10.7,26.9-25.1c0-10.7-7.2-16.1-14.3-16.1c-9,0-12.6,5.4-14.3,7.1h-7.2l10.7-44.8h43l-1.8,5.4h-32.3L2316.2,1629.9
	L2316.2,1629.9z"/>
</svg>
