<?xml version="1.0" encoding="utf-8"?>
<!-- Generator: Adobe Illustrator 23.0.3, SVG Export Plug-In . SVG Version: 6.00 Build 0)  -->
<svg version="1.1" id="Calque_1" xmlns="http://www.w3.org/2000/svg" xmlns:xlink="http://www.w3.org/1999/xlink" x="0px" y="0px"
	 viewBox="0 0 2500 1433" style="enable-background:new 0 0 2500 1433;" xml:space="preserve">
<path d="M528.5,238.8c-8.7,10.7-2.4,18.2,15.9,18.2c19,0,37.7,9.9,40.8,21.4c2.8,10.7,2.8,446,0,456.7
	c-3.2,11.9-22.2,21.4-42.8,21.4c-17.4,0-18.2,0.4-18.2,10.7v11.1H628l104.3-0.4v-9.5c0-9.1-2-9.9-20.6-11.9
	c-15.9-1.6-23.4-4.8-32.9-13.9l-11.9-11.5V281.6l13.9-12.3c10.7-9.5,17.8-12.3,29.7-12.3c15.1,0,15.9-0.8,15.9-12.3v-12.3l-34.5,3.2
	c-43.6,4.4-80.9,4.4-124.5,0.4C538.8,233.2,532.8,233.6,528.5,238.8L528.5,238.8z M760.8,235.6c-1.6,1.6-2.8,7.1-2.8,12.3
	c0,7.5,2,9.1,13.1,9.1c28.9,0,47.6,21.8,62.2,73.3c5.6,19.4,12.3,38.9,18.2,50.7c3.2,6.3,5.6,15.5,5.6,20.2c0,4.8,2,10.7,4.4,13.1
	c2.4,2.4,5.6,10.3,7.5,17.4c4.4,18.6,11.9,39.2,18.2,52.3c3.2,6.3,5.6,15.1,5.6,19.4c0,4.4,2.4,12.7,5.6,18.2
	c6.3,13.1,13.9,33.7,18.2,51.9c2,7.1,5.2,15.1,7.5,17.4s4.4,8.7,4.4,14.7c0,5.6,2.8,13.5,5.9,17.4c3.2,4.4,5.9,11.1,5.9,15.1
	c0,3.6,2.4,12.7,5.6,19.8c6.7,16.7,13.9,37.3,18.2,52.7c2,6.3,5.2,17,7.5,23.8c2,6.3,5.9,19.4,8.7,28.5c2.4,9.1,7.1,17.4,10.3,18.6
	c7.5,3.2,21-11.5,21-22.6c0-5.2,2.8-12.7,5.9-17c3.2-4,5.9-10.7,5.9-14.3s2.4-11.5,5.6-17.8c5.6-10.7,12.7-27.4,23.4-53.5
	c3.2-7.1,8.3-19.8,11.9-28.1c15.1-34.9,19.8-45.2,25.4-58.3c3.2-7.5,8.3-19,11.5-25c3.2-6.3,5.6-13.9,5.6-16.7s2.4-10.3,5.6-16.7
	c9.9-20.2,18.2-40.8,18.2-46.4c0-6.7,11.5-29.3,16.7-32.5c5.2-3.6,11.1,5.9,11.1,17.8c0,9.5,3.6,22.6,13.9,51.9
	c2.8,7.5,7.1,20.2,9.5,27.8c2.8,7.5,6.7,19.8,8.3,27.4c2,7.1,5.2,15.1,7.5,17.4c2.4,2.4,4.4,9.1,4.4,14.7c0,5.6,2,12.3,4.4,14.7
	c2.4,2.4,5.6,10.3,7.5,17.4c3.6,15.1,10.3,35.3,17.8,53.1c8.7,22.2,14.7,39.6,17.4,53.5c1.6,7.5,5.2,17.8,7.5,22.6
	c2.8,4.8,4.8,13.1,4.8,18.6c0,8.7,2,10.3,11.5,10.3c10.7,0,11.9-2,18.2-23c3.6-12.3,9.1-28.5,12.3-35.7c3.2-7.1,5.6-15.9,5.6-19.8
	c0-3.6,2.8-10.3,5.9-14.3c3.2-4.4,5.9-11.5,5.9-16.3c0-4.8,2.8-11.9,5.9-16.3c3.2-4,5.9-11.1,5.9-15.5c0-4.4,2.8-11.5,5.9-15.5
	c3.2-4.4,5.9-11.5,5.9-15.9c0-4.8,2.8-11.9,5.9-15.9c3.2-4.4,5.9-11.5,5.9-15.9c0-4.8,2.8-11.9,5.9-15.9c3.2-4.4,5.9-11.5,5.9-15.9
	c0-4.8,2.8-11.9,5.9-15.9c3.2-4.4,5.9-11.5,5.9-16.3c0-4.8,2.8-11.9,5.9-16.3c3.2-4,5.9-11.1,5.9-15.5c0-4.4,2.4-11.5,5.6-15.9
	c2.8-4.4,6.3-12.3,7.5-17.8c1.2-5.6,5.9-19.8,10.7-31.7c4.8-11.9,9.9-26.2,11.9-31.7c2-5.6,7.1-19.8,11.9-31.7
	c4.8-11.9,9.5-25.4,10.7-29.7c3.6-13.9,14.7-35.3,23.4-44.4c10.3-11.1,33.3-21,48.8-21c13.5,0,16.7-3.2,13.9-14.3
	c-2-7.1-6.3-7.5-90-7.1l-88,0.4l-1.2,10.3c-1.2,9.9-0.4,10.7,15.1,10.7c9.1,0,23,2.8,30.5,6.7c13.5,6.3,13.9,6.7,11.9,26.6
	c-1.6,20.2-6.7,38.1-17,59.1c-3.2,6.3-5.6,14.3-5.6,18.2c0,3.6-2.4,9.9-5.6,14.3c-2.8,4.4-6.3,12.3-7.5,17.8
	c-1.2,5.6-5.9,19.8-10.3,31.7c-15.5,38.5-20.6,53.5-23,61.4c-0.8,4.4-4.4,13.1-7.1,19.8c-9.1,21-15.5,40.8-26.2,81.3
	c-2.4,9.9-5.9,19.4-7.9,21.4c-4.4,4.8-19.4-21-19.4-33.3c0-5.6-2.8-15.1-5.9-21.4c-3.2-5.9-5.9-15.1-5.9-19.8s-2.8-12.3-5.9-16.7
	c-3.2-4-5.9-11.5-5.9-16.3s-2.4-13.5-5.6-19.8c-5.9-11.9-13.1-31.7-18.2-50.7c-4-14.7-11.1-35.7-17.8-51.5
	c-7.5-19.4-14.3-38.9-17.8-52.7c-1.6-7.1-4.8-15.1-7.1-17.8c-2-2.8-4.8-12.3-6.3-21.8c-2-14.7-1.2-18.2,7.5-27
	c7.1-7.1,13.9-9.9,23-9.5c21.8,1.2,23.4,0.8,21.8-11.1c-1.2-10.3-2-10.7-21-9.9c-24.2,1.2-135.6,1.2-162.5,0
	c-19-0.8-19.8-0.4-21,9.9c-1.2,10.3-0.4,11.1,13.9,11.1c21.4,0,38.9,11.9,48.4,34.1c4.8,9.9,8.3,21.4,8.3,25c0,4,2.8,10.3,5.9,14.7
	c3.2,4,5.9,10.7,5.9,14.7c0,4.4,2.8,12.7,6.7,18.6c6.3,10.7,5.9,11.9-6.3,38.5c-7.1,14.7-15.5,33.3-19,40.8c-3.2,7.5-8.3,19-11.5,25
	c-3.2,6.3-5.6,13.9-5.6,16.7s-2.4,10.3-5.6,16.7c-9.9,20.6-19.8,44.4-35.7,87.6c-3.6,9.1-6.3,20.2-6.3,24.6c0,4-2,8.7-4.4,9.9
	c-6.3,4-19.4-9.9-19.4-20.6c0-5.2-2.8-15.9-5.9-23.8c-3.2-7.5-5.9-17.8-5.9-22.6s-2.8-12.3-5.9-16.7c-3.2-4-5.9-10.7-5.9-14.7
	c0-4.4-2.4-13.1-5.2-19.8c-7.9-19-15.1-38.9-18.6-53.9c-2-7.1-5.2-15.1-7.5-17.4c-2.4-2.4-4.4-9.1-4.4-14.7c0-5.6-2.4-13.5-5.6-17.8
	c-2.8-4.4-6.3-12.3-7.5-17.8c-2.4-10.7-9.1-31.3-16.7-49.6c-14.3-35.7-17-48-11.9-57.5c6.7-12.3,20.6-19.4,38.9-19.8
	c14.3,0,15.1-0.8,13.9-11.1l-1.2-10.7l-33.7,2c-49.2,2.8-92.8,2.4-130.8-1.2C779,234.4,762.4,234,760.8,235.6L760.8,235.6z
	 M1709.5,239.2c-7.5,2.8-17.8,5.6-22.6,5.6c-7.5,0.4-21.4,5.9-40.8,17c-3.2,1.6-9.5,4.8-13.9,6.7c-23.4,10.3-74.9,68.2-90.8,101.5
	c-4,8.7-9.9,20.6-12.7,26.6c-3.2,5.6-5.6,13.9-5.6,18.2s-2.8,14.3-5.9,21.8c-4.4,10.7-5.9,30.1-5.9,76.1s1.6,65.4,5.9,76.1
	c3.2,7.5,5.9,17.4,5.9,21.8s2.4,12.7,5.2,18.2c3.2,5.9,8.7,17.8,13.1,26.6c9.9,21.4,27,43.6,50.3,66.2c19.8,19,23.8,22.2,55.1,37.3
	c56.7,28.1,114.2,35.3,181.6,21.8c50.3-9.9,89.2-36.5,130-88.4c19-23.8,20.2-27,14.3-32.5c-9.9-9.9-19-7.5-27,7.5
	c-11.1,20.6-48.8,54.7-69.8,63.4c-3.2,1.6-12.7,5.6-21.4,9.1c-22.2,9.1-116.2,8.7-129.6-0.4c-5.2-4-11.9-6.7-14.7-6.7
	c-5.9,0-32.9-19.8-46.8-34.1c-9.5-9.9-33.3-47.6-33.3-52.7c0-2-2.4-8.7-5.6-15.1c-14.7-29.3-18.6-55.5-18.6-127.3
	c0-54.3,1.6-73.7,6.3-85.2c3.2-7.9,5.9-17.8,5.9-22.2c0-6.7,5.6-20.6,16.7-40c1.6-3.2,4.8-9.5,6.7-13.9
	c7.1-16.7,56.7-61.4,67.8-61.4c2.4,0,8.7-2.8,13.9-6.3c7.1-4.8,20.2-6.3,55.1-6.3c33.7,0,49.2,2,58.3,6.3c7.1,3.6,15.1,6.3,17.4,6.3
	c9.5,0,52.3,34.9,61.4,50c16.3,26.2,23.4,42.8,23.8,53.5c0,13.1,17,29.7,22.6,22.6c2.4-3.2,3.2-35.7,2-87.6l-2-82.1h-9.5
	c-9.5,0-10.7,1.6-14.7,20.6c-2.4,9.9-4.4,11.1-19.8,11.1c-10.7,0-19-2.4-22.2-5.9c-2.8-3.2-7.5-5.9-10.7-5.9s-10.7-2.4-16.3-5.6
	c-27.4-13.9-51.9-18.2-98.3-17.8C1741.2,233.6,1718.2,236,1709.5,239.2L1709.5,239.2z M42.4,1017.4c-17,5.9-28.5,17.4-33.3,32.9
	c-4,13.5-4,17.8,2.4,30.5c7.9,16.7,34.5,31.7,55.1,32.1c15.5,0.4,34.1,16.7,30.9,27c-7.9,21.8-38.9,22.2-69.8,0
	c-7.9-5.2-17.4-1.2-24.6,10.3c-3.2,5.2-2,8.3,4.4,14.7c4.8,4.4,11.1,7.9,14.3,7.9c2.8,0,8.7,2.8,13.1,5.9c10.7,7.9,49.6,7.5,67-0.8
	c15.5-7.1,29.7-28.1,29.7-42.8c0-13.9-11.9-32.1-25.4-38.5c-6.7-3.6-23-9.1-36.1-13.1c-27.4-7.9-33.7-11.9-33.7-21.8
	c0-19,32.1-26.2,53.5-11.9c16.7,10.7,33.7,4.8,33.7-11.9C123.7,1023.7,66.2,1009.1,42.4,1017.4L42.4,1017.4z M251.7,1016.6
	c-4.8,1.2-17.4,9.9-28.1,19.4c-15.5,13.9-20.6,22.2-26.6,41.2c-7.1,23.4-7.1,25,0,46c19,55.1,73.7,77.3,124.9,50.7
	c11.5-5.9,21.8-13.1,22.6-16.3c1.2-2.8-2.4-9.9-7.9-15.9l-10.3-10.3l-9.1,8.3c-15.1,13.9-38.1,18.6-55.1,11.5
	c-42.8-18.2-48-76.1-9.1-101.9c15.5-10.3,36.1-9.1,55.1,2.4c20.6,12.7,24.2,12.3,32.1-2.8c5.9-11.9,5.9-12.7-0.8-17.8
	c-4-2.8-9.1-5.2-11.9-5.2s-5.6-2-6.3-4.4C319.5,1017.4,266.4,1013.4,251.7,1016.6L251.7,1016.6z M425,1016.6
	c-5.2,1.6-5.9,14.3-5.9,84v82.1l17,1.2l16.7,1.2v-72.2l36.9,1.2l36.5,1.2v67.4l17,1.2l16.7,1.2l-0.8-84.4
	c-1.2-92.8-0.8-90.8-25.8-84.4c-10.3,2.4-10.3,2.4-7.5,33.7c1.6,21.8,1.2,32.1-2,34.1c-2.8,1.6-19,2.8-36.9,2.8h-32.1l-2-35.3
	c-2-34.1-2.4-35.3-11.9-36.1C435.3,1015.4,428.2,1015.8,425,1016.6L425,1016.6z M698.5,1026.9c-4.4,7.1-7.9,15.1-7.9,17.4
	c0,2.4-5.2,14.7-11.9,27.4c-6.3,12.7-11.9,25-11.9,27.4c0,2.4-8.3,20.2-17.8,39.6c-9.9,19.8-17.8,38.1-17.8,40.8
	c0,3.6,5.6,5.2,15.9,5.2c13.9,0,16.7-1.6,20.2-11.1c2-5.9,6.3-15.9,9.5-22.6l5.6-11.5l34.9,1.2c36.1,0.8,44.8,4.8,44.8,20.2
	c0,12.7,11.9,23.8,25.8,23.8c7.5,0,14.3-1.6,15.5-3.2c1.2-2-5.2-18.6-14.3-36.9c-8.7-18.2-18.2-38.9-21-45.2
	c-12.3-28.9-19.4-44.4-24.6-54.3c-2.8-5.6-5.2-13.9-5.2-18.2c0-7.5-9.5-12.7-25-12.7C709.6,1014.2,702.9,1020.2,698.5,1026.9
	L698.5,1026.9z M724.7,1064.6c1.2,4,5.6,14.3,9.9,23.4c9.1,19.8,9.5,23.8,1.2,27c-10.3,4-40.4,2.8-43.2-2
	c-3.2-4.8,21-55.1,26.2-55.1C721.1,1057.8,723.5,1061,724.7,1064.6z M930.5,1017l-55.5,1.6v164.1h31.7l-1.6-35.3l-1.2-35.3l42,2.4
	c46,2.4,49.6,1.2,44.4-19c-2.4-9.5-2.8-9.5-43.2-8.7l-40.4,0.8V1044l46.4,1.2l46.4,1.6l2.8-10.3c2.8-11.1-4-23-11.9-21.4
	C987.9,1015.4,961,1016.6,930.5,1017L930.5,1017z M1133.4,1018.2l-54.7,2v159.8c0.4,3.6,5.2,4.8,15.5,4l14.7-1.2v-67.4h83.3v-27.8
	h-83.3V1044l46.4,1.2l46.4,1.6l2.8-10.3c2.8-11.1-4-23-11.9-21.4C1190.1,1015.4,1163.6,1017,1133.4,1018.2L1133.4,1018.2z
	 M1281.3,1016.6c-5.2,1.6-5.9,13.5-5.2,82.1c0.4,44,0.8,81.3,0.8,82.9c0.4,2,7.5,3.2,16.3,3.2h15.9v-71.4h75.7l-1.2,34.5l-1.2,34.9
	l17,1.2l16.7,1.2v-83.3c0-54.7-1.6-84-4.4-85.6c-2.4-1.6-10.3-1.6-18.2,0l-13.9,2.4l2.8,30.9c2,21.8,1.2,32.1-1.6,34.1
	c-2.8,1.2-19.4,2.8-37.3,2.8l-32.5,0.4l-0.4-31.7c0-17-1.6-33.7-3.2-36.1C1304.7,1014.2,1293.6,1013.4,1281.3,1016.6L1281.3,1016.6z
	 M1566,1018.6c-4,2-7.1,7.5-7.1,11.9c0,4.8-2.4,13.1-5.6,18.6c-11.9,21.8-30.1,64.6-30.1,69.8c0,3.2-1.6,6.7-3.6,8.3
	c-5.2,2.8-24.2,43.6-24.2,51.1c0,4.4,4,6.3,13.1,6.3c14.7,0,26.6-9.9,26.6-22.2c0-17,7.9-21,45.6-22.2l35.7-0.8l8.7,21.4
	c8.3,21,9.1,21.8,24.6,23c21.4,1.6,21-2.4-2-50.3c-20.2-42.4-23-48.4-46.8-104.7c-5.2-11.9-8.3-14.7-17-14.7
	C1577.5,1014.2,1569.5,1016.2,1566,1018.6L1566,1018.6z M1588.2,1069.7c14.7,28.5,19,39.2,16.7,43.2c-4,6.3-40,5.6-45.6-1.2
	c-3.6-4.4-2.8-9.5,3.2-22.6c4.4-9.5,8.7-20.6,9.9-24.6C1575.5,1055.1,1581.8,1057.4,1588.2,1069.7L1588.2,1069.7z M1726.9,1016.6
	c-2.8,1.2-3.6,21.4-2.4,64.2c2,58.7,2.4,63,11.5,74.9c5.6,7.1,15.9,16.7,23,21c23.8,14.7,70.2,8.3,88.4-11.9
	c2.8-3.2,8.7-13.5,12.7-23c6.7-14.3,7.9-26.2,7.9-70.6c0-52.7,0-53.1-9.5-55.5c-23.8-5.9-24.2-4.8-26.2,61.4c-2,61.1-2,61.1-13.1,69
	c-5.9,4.8-16.7,8.3-24.2,8.3c-34.1,0-45.2-25.8-39.6-91.6c3.2-37.3,2.8-42-3.2-45.2C1745.6,1014.2,1734.5,1013.4,1726.9,1016.6
	L1726.9,1016.6z M1979.1,1017c-13.1,2.4-23,11.5-32.5,30.5c-7.5,14.7-7.5,15.9-1.2,30.5c5.6,11.5,11.9,17.4,28.5,25
	c11.5,5.6,25,10.3,29.3,10.3c26.6,0,42.4,29.3,21.4,38.9c-15.5,7.1-27.4,5.9-48-5.2c-22.6-11.9-24.6-12.3-33.7-1.6
	c-9.1,10.7-6.3,17.4,11.5,25.4c7.9,3.6,17.8,7.9,21.4,9.9c4,2.4,16.7,4,28.5,4c56.7,0,82.5-52.3,42.4-86c-5.6-4.8-13.9-8.7-18.2-9.1
	c-4.8,0-17.8-3.6-29.7-7.5c-18.2-6.3-22.2-9.5-23-18.2c-0.8-5.6,0.8-13.1,3.6-16.3c7.1-8.7,36.1-7.1,48.8,2.8
	c11.9,9.5,23.8,7.5,30.5-5.6C2069.5,1025.3,2023.1,1009.1,1979.1,1017L1979.1,1017z M2196.7,1017l-53.5,1.6v82.1l0.4,82.1h126.9
	l1.2-13.5c0.8-7.1,0-14.7-2-16.7c-2-2-22.2-2-44.8,0c-35.3,2.8-42.4,2.4-46.4-2.8c-6.3-7.9-6.7-31.3-0.4-34.9
	c2.8-1.6,22.2-2.4,43.6-2l38.9,1.2v-13.9c0-7.5-2.4-14.7-4.8-15.5c-2.8-1.2-20.2-0.8-38.9,0.8c-38.1,3.2-43.6,0.4-43.6-21.4
	c0-22.6,3.2-23.8,47.2-21c22.2,1.2,42.8,1.6,46,0.4c3.2-1.6,5.9-7.5,5.9-13.5c0-7.9-2.4-11.5-8.7-13.5c-5.2-1.2-9.9-2-11.1-1.6
	C2251.4,1015.4,2226.5,1016.6,2196.7,1017L2196.7,1017z M2358.1,1017.8c-2,3.2-4,133.6-2.8,162.1c0.4,3.6,5.2,4.8,15.5,4
	c14.3-1.2,14.7-1.6,14.7-17c0-8.7-1.6-34.5-3.2-56.7c-2.4-32.5-2-40.8,2-39.6c2.8,0.8,24.6,27,48,57.9c37.7,50,44,56.3,54.3,56.3
	h11.5l1.2-80.5c0.8-44-0.4-82.5-2.4-85.2c-2-2.4-7.1-4.8-11.9-4.8s-11.5,2.4-15.1,4.8c-5.9,4.8-5.9,9.5-1.2,52.7
	c2.8,26.2,4.4,48.8,3.6,50.3c-3.6,5.9-17.8-7.1-33.3-30.5c-8.3-13.1-21-29.7-27.4-36.9c-6.7-7.5-15.1-18.6-18.2-25
	c-3.6-6.3-8.3-11.5-11.1-11.5c-2.4,0-8.7-1.2-13.1-2.4C2364.4,1014.6,2359.3,1015.4,2358.1,1017.8L2358.1,1017.8z"/>
</svg>
