<?xml version="1.0" encoding="utf-8"?>
<!-- Generator: Adobe Illustrator 23.0.3, SVG Export Plug-In . SVG Version: 6.00 Build 0)  -->
<svg version="1.1" id="Calque_1" xmlns="http://www.w3.org/2000/svg" xmlns:xlink="http://www.w3.org/1999/xlink" x="0px" y="0px"
	 viewBox="0 0 2500 2500" style="enable-background:new 0 0 2500 2500;" xml:space="preserve">
<style type="text/css">
	.st0{fill-rule:evenodd;clip-rule:evenodd;}
</style>
<path class="st0" d="M831.7,1706.3l-148.9-342.8l-136.7,482.7h65.6l85-301.5l135,311.6L967,1544.6l84.7,301.5h65.6l-136.4-482.7
	L831.7,1706.3z M284.9,1363.4h-1.1c-71.1,0.4-130.5,25.3-178.3,75.3c-45.8,48.2-68.7,105.1-68.7,171.1c0,64.9,22.2,121.1,66.6,169
	c47.9,51.4,107.9,77,180.4,77.4h1.1c69.4,0,128.4-25,176.6-75.3c46.5-48.2,69.7-105.5,69.7-171.1c0-66.3-23.2-123.5-69.7-171.8
	C413.6,1388.4,355,1363.4,284.9,1363.4L284.9,1363.4z M411.9,1743.4c-33.3,35.4-75.7,53.1-127.7,53.1h-0.4c-52,0-94.7-18.1-128-53.8
	c-33-36.1-49.6-80.2-49.6-132.2c0-52.1,16.7-96.5,49.6-132.9c33.3-36.4,76-54.5,128-54.5h0.4c52,0,94.4,18.1,127.7,54.1
	c33,36.4,49.6,80.8,49.6,133.2C461.5,1663.6,444.8,1707.7,411.9,1743.4L411.9,1743.4z M1170,1251.7v-29.8
	c-46.8-29.8-87.8-67.3-120.4-115.9c-53.8-103.1-68-205.8,4.2-308.8c134.6-152,228.7-93,316.8-4.2c58,82.9,60.8,165.9,38.9,248.8
	c-24.3,82.6-65.9,143-124.2,180.1v29.5H1534l40.6-93c-3.8-21.2-13.2-18.4-31.9-17.7l-30.5,42.3h-72.9c21.6-31.3,43-62.8,64.2-94.4
	c29.5-76.3,40.9-156.1,12.8-244.3c-59.3-192.2-301.5-243.6-455.9-167.6c-94.7,46.1-163.4,138.1-161,262
	c2.8,93,47.9,177.7,113.1,244.3h-55.9l-51.4-41.6c-14.6-4.9-25.3,1.7-28.1,18l53.1,92.3H1170L1170,1251.7z M2237.3,1364.1l-0.3-0.7
	l-225.6,482.7h70.8l59.3-127h191.2l59.3,127h71.2L2237.3,1364.1L2237.3,1364.1z M2237.3,1659.4h-72.9l72.5-144.7l0.3,0.7l72.5,144
	L2237.3,1659.4L2237.3,1659.4L2237.3,1659.4z M1167.6,1846.1h281.8v-59.7h-216.2v-165.9h216.2v-59.7h-216.2v-128.7h216.2v-58.6
	h-281.8V1846.1z M1748.4,1655.9h169c-3.8,40.6-20.8,74.3-51,101c-29.8,26.4-66.6,39.6-110.3,39.6c-52.4,0-95.1-18.1-128.1-53.8
	c-33.3-36.1-50-80.2-50-132.2c0-52.1,16.6-96.5,50-132.9c33-36.4,75.6-54.5,128.1-54.5c27.4,0,51,4.5,71.1,13.9
	c20.1,9,39.2,22.9,57.2,41.3l49.6-39.6c-25.4-24.6-52.1-43.4-80.5-56.2c-28.8-12.8-60.8-19.1-96.8-19.1c-71.5,0-131.5,25-179.4,75.3
	c-45.8,48.2-68.7,105.1-68.7,171.1c0,58.3,18,110.7,54.5,157.5c45.8,59.3,110.7,88.8,193.6,88.8c81.5,0,142.9-30.2,184.2-90.9
	c32.3-46.8,48.2-103,48.2-169H1772L1748.4,1655.9z"/>
</svg>
