<?xml version="1.0" encoding="utf-8"?>
<!-- Generator: Adobe Illustrator 23.0.3, SVG Export Plug-In . SVG Version: 6.00 Build 0)  -->
<svg version="1.1" id="Calque_1" xmlns="http://www.w3.org/2000/svg" xmlns:xlink="http://www.w3.org/1999/xlink" x="0px" y="0px"
	 viewBox="0 0 2500 2500" style="enable-background:new 0 0 2500 2500;" xml:space="preserve">
<style type="text/css">
	.st0{fill-rule:evenodd;clip-rule:evenodd;}
</style>
<g>
	<path class="st0" d="M1587.4,757.9c-22.1,0-39.9,17.9-39.9,39.9c0,13.9,6.8,26.1,17.6,33.3l-135.5,290.7l28.3-387.2
		c22-1.9,38.3-21.2,36.5-43.2c-1.8-20.7-19.1-36.6-39.8-36.6c-22.1,0-39.9,17.9-39.9,39.9v0c0,17.4,11.1,31.9,26.6,37.4l-93,378
		l-46-417c17.4-4.6,29.5-20.3,29.4-38.2c0-22.1-17.9-39.9-39.9-39.9s-39.9,17.9-39.9,39.9c0,19.9,14.7,36,33.8,39l-37.1,406.3
		l-107.7-366.9c13.1-6.8,21.4-20.4,21.4-35.2c0-22.1-17.9-39.9-39.9-39.9s-39.9,17.9-39.9,39.9c0,22.1,17.9,39.9,39.9,39.9
		c0.6,0,1.2-0.1,1.8-0.1l46.4,383.8l-156.5-279.3c17.4-13.6,20.4-38.7,6.8-56.1c-13.6-17.4-38.7-20.4-56.1-6.8
		c-17.4,13.6-20.4,38.7-6.8,56.1c9.5,12.1,25,17.6,39.9,14.4l131.1,392.9c29.9,91.4,295.7,93,335.6,0l118.4-405.8
		c1.6,0.2,2.9,0.5,4.6,0.5c22.1-0.4,39.6-18.6,39.2-40.6C1626.2,775.7,1608.9,758.3,1587.4,757.9L1587.4,757.9z M1293.3,1285.2
		c-67.7,0-122.7-20.4-122.7-45.6s54.9-37,122.7-37s115.5,11.8,115.5,37C1408.8,1264.8,1361.1,1285.2,1293.3,1285.2L1293.3,1285.2z
		 M1485.9,1519.2h39.5c24,0,32.4,5.4,32.4,26.4v258.5c0,20.4-8.4,28.2-32.4,28.2h-39.5v41.8h404.2v-171.6h-38.2
		c0,84.6-33.5,129.1-89.9,129.1h-113.4v-137.5h22.3c36.6,0,57.5,16.2,57.5,46.2v24h43.9v-190.9h-43.9v21c0,29.5-22.1,47.4-57.5,47.4
		h-22.3v-122.6h105.6c77.4,0,93.5,44.6,97.7,111.2h38.2v-156.6h-404.2V1519.2L1485.9,1519.2z M1308.1,1831.6h-95.8v-284.2
		c0-21,8.4-28.2,32.4-28.2h36v-44.4h-223.5v44.4h31.2c24,0,32.4,7.2,32.4,28.2v256.7c0,20.4-8.4,28.2-32.4,28.2h-31.2v42.8H1436
		v-175.8h-43.2C1391.6,1768.3,1392.1,1831.6,1308.1,1831.6z M773.7,1462.6c-138.1,0-224,106.5-224.5,206.6
		c-0.6,129.6,85.2,211.3,220.3,211.3c143.4,0,226.9-80.4,226.9-217.9C996.4,1560.7,906.3,1462.6,773.7,1462.6z M770.7,1833.2
		c-72,0-113.4-64.4-113.4-167c0-100.2,43.2-152,117-152c70.8,0,112.2,53,112.2,156.2C886.5,1771.2,844.5,1833.2,770.7,1833.2
		L770.7,1833.2z M2421.2,1519.2h42v-45H2260v45h26.6c10,1.5,16.6,11.8,6.7,21.7l-56.5,64.8l-44.9-54.8c-10-11.6-8.3-31.6,10-31.6
		l20.5-0.1v-45h-231.5v45c58.2,1.7,72.7,8.4,93.7,35.4l94.1,114.2l-127.9,134.6c-22.8,25.8-25,28.1-59.8,28.1v43h202.7v-43h-48.5
		c-14.4,0-17.4-10.4-17.4-18.2c0-7.8,10.2-16.8,14.4-22.2l71.4-80.8l71.5,85.1c3.6,4.8,9.6,10.2,9.6,16.2c0,7.8-6.6,20-20.4,20H2234
		v43h229.3v-43c-36.2,0-39.5-1.7-72-41.4l-119.6-141.2l81.4-88.1C2383.1,1529.1,2394.8,1519.2,2421.2,1519.2L2421.2,1519.2z
		 M453.9,1759.5v20.6c0,24.6-14.4,37.2-26.4,37.2c-19.2,0-20.4-23.4-21.6-37.2v-16.6c0-54.8-24.9-76.4-56.5-93.1
		c58.8-13.8,97.8-48.9,97.8-97.5c0-63-43.2-99-120-99H36.8v45.4h39.3c24,0,32.4,5.6,32.4,26.5v257.6c0,20.4-8.4,28.2-32.4,28.2H36.8
		v42.6H263v-42.6h-31.2c-24,0-32.4-7.8-32.4-28.2v-114.7h40.4c43.2,0,74.9,24.2,77.3,69.8l3.6,52.7c2.4,48,34.8,73.8,91.8,73.8
		c60.6,0,74.9-29.4,74.9-91.8v-33.6L453.9,1759.5L453.9,1759.5L453.9,1759.5z M269.7,1636.6h-70.2v-117.7h62.4
		c60,0,81.6,19.9,81.6,58.9C343.5,1618,320.1,1636.6,269.7,1636.6L269.7,1636.6z"/>
</g>
</svg>
