<?xml version="1.0" encoding="utf-8"?>
<!-- Generator: Adobe Illustrator 23.0.3, SVG Export Plug-In . SVG Version: 6.00 Build 0)  -->
<svg version="1.1" id="Calque_1" xmlns="http://www.w3.org/2000/svg" xmlns:xlink="http://www.w3.org/1999/xlink" x="0px" y="0px"
	 viewBox="0 0 2500 2500" style="enable-background:new 0 0 2500 2500;" xml:space="preserve">
<style type="text/css">
	.st0{fill-rule:evenodd;clip-rule:evenodd;}
	.st1{fill-rule:evenodd;clip-rule:evenodd;fill:#FFFFFF;}
	.st2{fill:none;stroke:#000000;stroke-width:0.549;stroke-miterlimit:2.613;}
</style>
<path class="st0" d="M263.9,1749.3v-247.5h109.3v-57.5H77.1v57.5h109.3v247.5H263.9L263.9,1749.3z M994,1746.2
	c-59.5,13.4-136,17.3-191.3-8.1c-47.2-20.7-76.2-69.9-82.3-118.2c-6.3-59.2,16-111.1,63.4-146c55.3-39.6,143.1-38.2,203.4-10.7v60.3
	c-45.6-21-114.3-33.3-158,0c-31.5,24.1-41.1,62.4-33.3,100.6c6.3,30.1,32.2,57.4,61,67.4c20.5,6.5,45.6,8.6,68.4,5.7V1648l-30.1,0.1
	V1589h98.7L994,1746.2L994,1746.2z M1292.3,1608.3l-0.1,141.9h29.4v-303.6h-29.4l0.1,138.1h-189.4l0.1-138.1h-29.4v303.6h29.4
	l-0.1-141.9L1292.3,1608.3L1292.3,1608.3z M1854.9,1674.4c0,0-20.2,58.3-85.7,58.3c-53.3,0-70.3-37.4-70.3-75.1v-170.3h-29.3
	l-0.1,164.1c0,99.4,74.4,104.9,95,104.9c62.6,0,90.4-45.7,90.4-45.7l-0.1,39.4h29.4v-262.7h-29.3L1854.9,1674.4L1854.9,1674.4z
	 M2422.9,1513.3c0,0-26.8-30.2-60.4-30.2c-44.9,0-90.9,70-90.9,70l0.1-65.4h-29.4v262.7h29.3l0.1-167c0,0,41.6-72.3,81.4-72.3
	c27.3,0,54,29.2,54,29.2L2422.9,1513.3L2422.9,1513.3z M463.3,1691.4l-23.4,59.7h-81.8l124.5-304.2h88.7L706,1751.1h-81.8l-25-59.7
	H463.3z M575.8,1636.1l-47.3-113.7l-43.8,113.7L575.8,1636.1L575.8,1636.1z M1408.7,1608.5c-0.2,3-0.3,6-0.3,9
	c0,64.2,42.2,112.2,104.6,112.2c56.3,0,97.2-39.3,97.2-39.3v30.4c0,0-37.9,34.9-100.5,34.9c-95,0-132.5-80.9-132.5-137.9
	c0-74.5,48.4-135.9,118.7-135.9c79.5,0,119.3,61.7,119.3,126.5L1408.7,1608.5L1408.7,1608.5L1408.7,1608.5z M1412.4,1584.5h168.3
	c0,0-5.5-75.7-84.9-75.7C1451.1,1508.8,1422.2,1542.1,1412.4,1584.5z M1977.4,1608.5c-0.2,3-0.3,6-0.3,9
	c0,64.2,42.2,112.2,104.7,112.2c56.3,0,97.2-39.3,97.2-39.3v30.4c0,0-37.9,34.9-100.5,34.9c-95,0-132.5-80.9-132.5-137.9
	c0-74.5,48.4-135.9,118.7-135.9c79.5,0,119.3,61.7,119.3,126.5L1977.4,1608.5L1977.4,1608.5L1977.4,1608.5z M1981,1584.5h168.3
	c0,0-5.5-75.7-84.8-75.7C2019.7,1508.8,1990.8,1542.1,1981,1584.5z M1251,1320.6L935.4,1149l0-481.7l631.2,0v481.8L1251,1320.6
	L1251,1320.6z"/>
<path class="st1" d="M1251.1,1298.8l-296.3-162.5l0-448.9l592,0.2l0,448.8L1251.1,1298.8L1251.1,1298.8z"/>
<path class="st2" d="M983.8,1119.5l267.3,146.5l266.9-146.4V989.7l-534.2,0L983.8,1119.5L983.8,1119.5z M1518,975.7V716.3l-534.2,0
	l0,259.4L1518,975.7L1518,975.7L1518,975.7z"/>
<path class="st0" d="M1177,1176.6v18.7l-53.4-29.3v-152h53.4v16.7h-37.6l0,40.6l37.6,8.3l0,16.5l-37.6-8.1l0,69.5L1177,1176.6z
	 M1033.4,1064.8v52.8l-16-8.7l0-95h16v34.2l42.8,9.2V1014h15.9v135l-15.9-8.6v-66.3L1033.4,1064.8L1033.4,1064.8z M1325.2,1195.2
	V1014h53.6v16.7h-37.5v49.5l37.6-7.8v16.6l-37.6,8.3v70.9l37.6-18.4v16.2L1325.2,1195.2L1325.2,1195.2z M1208.6,1211.8V1014h19.2
	l0,185.1l23.3,11.8l23.2-11.1V1014h19.2v197.8l-42.4,23L1208.6,1211.8L1208.6,1211.8z M1460.8,1072l17.5-3.9
	c5.5-1.4,6.3-3.6,6.2-9.6v-38.8c-0.6-3.6-3.4-6.1-8.3-5.8l-66.1,0V1149l16.3-8.8v-61l15.3-3.3l38.3,35.5l14.7-7.9L1460.8,1072
	L1460.8,1072z M1426.2,1062.4v-31.6h40.5c1.3-0.1,1.9,0.9,1.9,2l-0.1,19.4c0,1.3-0.7,1.6-1.8,1.7L1426.2,1062.4L1426.2,1062.4z
	 M1440.3,840.8h-98.3v-8.9l61.3-49.5l-79.9-56.7l0.3,29.4c-12.4,1.4-24.4,4.9-35.6,10.5v-10h-58.2l-22.3,32.6v-32h-140.5v57.7h35.5
	v124.2l-14.2,23.3h75.5l17.7-25.9h45.1v25.9h61.3v-7.1c19.8,13.3,47.5,11.6,47.5,11.6c58.7,0,106.3-47.3,106.3-105.7
	C1442.1,853.7,1441.5,847.2,1440.3,840.8L1440.3,840.8z M1168.5,844.6v-30.7h21L1168.5,844.6z M1221,879.1l8.8-13c0,0,0,6.1,1.4,13
	H1221z M1297.4,886.2l19.8,16.3C1309.2,899,1302.4,893.3,1297.4,886.2z M1323.9,828l-33.8,27.4c0,0,2.2-29.6,33.8-39V828z
	 M1342.1,905.7v-9.1h20.7C1353.7,903.5,1342.1,905.7,1342.1,905.7z"/>
<path class="st1" d="M1234.7,890.1l-35,0l31.9-46c4.4-29.6,21-56.1,45.9-72.8v-5.1h-41.1l-78.9,113.5v-76.6h39.8v-36.9h-119.2v36.9
	h36.1v138l-5.7,9h49.4l18.1-25.8h61.8v26.2h39.5v-2.2C1256.8,934.6,1241.7,913.9,1234.7,890.1L1234.7,890.1z"/>
<path class="st1" d="M1332.5,835.4v16h99c0.2,2.6,0.3,5.6,0.3,8.3c-0.6,52.3-43.5,94.3-95.9,93.7c-51.5-0.6-93.1-42.2-93.7-93.7
	c0-52.3,41.6-94.7,93.9-94.7v-18.4l50.4,35.8l-50.4,40.4v-19.4c-31.4,0-56,24.8-56,56.2c0,31.4,25.4,56.8,56.8,56.8c0,0,0,0,0,0
	c22.2,0,41.4-13.5,50.7-32l-55.3-0.1v16.3l-39.6-32.6L1332.5,835.4L1332.5,835.4z"/>
</svg>
