<?xml version="1.0" encoding="utf-8"?>
<!-- Generator: Adobe Illustrator 23.0.3, SVG Export Plug-In . SVG Version: 6.00 Build 0)  -->
<svg version="1.1" id="Calque_1" xmlns="http://www.w3.org/2000/svg" xmlns:xlink="http://www.w3.org/1999/xlink" x="0px" y="0px"
	 viewBox="0 0 2500 2500" style="enable-background:new 0 0 2500 2500;" xml:space="preserve">
<style type="text/css">
	.st0{fill-rule:evenodd;clip-rule:evenodd;fill:#929496;}
	.st1{fill-rule:evenodd;clip-rule:evenodd;}
	.st2{fill-rule:evenodd;clip-rule:evenodd;fill:#FFFFFF;}
</style>
<path class="st0" d="M2240.8,1713.3c3.2,0.2,8.2,0.2,8.7,0.2c4.7,0,6.7-2,6.7-6.7c0-19.9-20.4-35.6-46.3-35.6
	c-36.1,0-61,27.4-61,67.5c0,38.1,21.9,62.2,57.8,62.2c17.4,0,31.1-5.5,41.1-16.2c5.5-6,9.7-13.2,9.7-16.4c0-2.5-1.3-4.2-3.2-4.2
	c-1.6,0.1-3.1,0.8-4.2,2l-2.7,3.7c-6.2,7.7-17.9,12.7-29.9,12.7c-29.4,0-46.8-17.7-46.8-48.1c0-8.5,1-13.4,3.2-22.4L2240.8,1713.3
	L2240.8,1713.3z M359.5,1613.7c-13.2-6.7-25.9-9.5-42.8-9.5c-39.1,0-68,22.6-68,53.5c0,21.7,12.4,35.1,43.8,47l20.7,8
	c24.1,9.2,34.6,20.4,34.6,37.8c0,23.9-18.2,40.6-44.1,40.6c-13.2,0-24.6-4-32.1-12c-6.5-6.2-11.7-16.4-13.7-24.6l-1-6.5
	c-1.2-5.5-2.7-7.2-6.7-7.2c-4.2,0-6.2,2.5-6.2,8l1,41.6c17.2,7.7,34.1,11.5,54,11.5c25.4,0,44.3-6.7,57.5-20.7
	c10.5-10.7,15.9-23.9,15.9-38.3c0-24.9-12.4-40.1-41.6-51.8l-13.7-5.5c-23.9-9.5-29.4-12-35.4-17.4c-6-5.7-8.7-12.5-8.7-21.4
	c0-18.9,15.2-32.1,35.8-32.1c20.2,0,36.1,11.7,39.1,29.4l1,4.5c0.8,3.7,2.2,5.5,5.7,5.5c4.5,0,5-0.5,6-6.2v-0.8L359.5,1613.7
	L359.5,1613.7z"/>
<path class="st0" d="M490.4,1768.8l-22.7-64.5c-3.7-10.7-4-11.5-4-12.9c0-3,1.5-4,8.2-5.2l6.2-1.5c4.5-0.7,6.5-2.2,6.5-5
	c0-2.7-2.2-4.7-5.5-4.7h-2l-5,1c-6.5,0.8-12.2,1-17.9,1c-5,0-12.7-0.5-19.7-1l-5.7-0.7c-1.2-0.3-1.5-0.3-2.7-0.3
	c-2.7,0-5.2,2.2-5.2,4.7c0,2.5,2,4,5.7,4.7l5.7,1.3c5.2,1,7.2,3.2,11.2,12.9l5.7,15.7l-23.9,54l-24.1-67.7
	c-3.5-9.2-3.5-9.2-3.5-10.9c0-2.7,0.5-3,7-4.5l4.5-0.8c3.2-0.7,5.2-2.5,5.2-5s-2.2-4.5-5.5-4.5c-0.5,0-1.5,0-2.2,0.3l-4.5,0.5
	c-7.7,0.7-14.4,1.2-18.9,1.2c-5.2,0-8-0.3-16.4-1.2l-3.2-0.5c-1.2-0.3-2-0.3-2.7-0.3c-2.5-0.1-4.6,1.7-4.7,4.2c0,0,0,0,0,0
	c0,2.7,2,4.5,5.7,5.2l3.2,0.8c7,1.5,9.7,5.5,16.9,25.1l32.9,87.4c1.2,3,1.7,3.5,4,3.5s3-0.8,4.5-3.7l30.9-69.7l25.4,70.5
	c0.8,2.5,2,3.5,4.2,3.5c1.5,0,2.7-1,3.5-3l41.1-88.9c0.7-1.8,1.5-3.7,2.5-6c6.2-14.4,8.5-16.7,18.2-18.7l4.7-0.8
	c3.2-0.7,4.7-2.5,4.7-4.7c0-2.7-2-5-4.7-4.7c-0.5,0-1,0-1.8,0.3l-3.7,0.7c-2.2,0.3-12.7,0.8-18.4,0.8c-5.7,0-7.2,0-18.7-1l-4-0.8
	h-1.7c-3,0-5,2-5,4.5c0,3,2,4.5,7.7,5.5l4.7,1c4,0.5,6.7,3,6.7,5.7c0,2.7-1.5,7.5-4.5,14.9L490.4,1768.8L490.4,1768.8z
	 M570.9,1765.1c0,18.4-0.5,19.7-8.7,20.9l-4.5,0.5c-4.5,1-6.2,2.2-6.2,5.5c0,2.7,1.5,4,4.7,4.2h1.2l4.7-0.3c8-0.5,15.4-0.7,20.7-0.7
	c6,0,11.9,0.3,16.4,0.7l4,0.3h1.5c3.5-0.3,5-1.2,5-4.2c0-3.2-2-4.5-7.5-5.5l-3.2-0.5c-4.5-0.5-6.2-1.5-7-3.5
	c-1-2.3-1.5-11.2-1.5-21.4v-88.6c0-4-0.5-5.2-3.2-5.2c-1.2,0-2.2,0.5-2.7,1.5l-1.2,1.8c-5.2,7.2-13.2,14.2-19.9,16.7l-4,1.7
	c-4,1.8-4.5,2.3-4.5,4.5c0,3,1.5,4,5.5,4h3c6.7,0,7.5,2,7.5,17.4L570.9,1765.1L570.9,1765.1L570.9,1765.1z M581.1,1618.4
	c-7,0-12.5,6-12.5,13.4c0,7.7,5.5,13.9,12.5,13.9c7,0,12.4-6.2,12.4-13.9C593.5,1624.6,588,1618.4,581.1,1618.4z M785.2,1682.4
	c0-3.5-0.2-4-1.7-5c-4.7-2.7-19.7-5.2-29.4-5.2c-26.4,0-45.3,15.2-45.3,36.4c0,14.7,6,21.7,25.9,30.6l15.4,7.2
	c16.4,7.3,21.2,12.5,21.2,22.9c0,12.2-10.2,21.4-23.9,21.4c-13.9,0-23.9-9.7-27.4-26.1l-0.5-4.2c-0.8-3.7-2.2-5.2-5.7-5.2
	c-5,0-5.7,1.5-5.7,10.4v23.4c0,2.3,0.5,3,3.5,4.2c9.2,4.5,21.9,7.2,32.9,7.2c27.6,0,47.3-15.7,47.3-38.6c0-8.7-3.5-17.4-9.5-23.2
	c-5.5-5-10.2-7.7-25.7-14.7l-13.2-5.7c-10.5-4.7-15.2-10.2-15.2-17.4c0-11.7,8.5-19.2,21.9-19.2c12.2,0,20.2,7,23.2,19.7l1,3.7
	c0.8,4.2,2.2,5.7,5.2,5.7c4.5,0,5.7-1.8,5.7-9.2L785.2,1682.4L785.2,1682.4z M690.4,1682.4c0-3.5-0.3-4-1.7-5
	c-4.7-2.7-19.4-5.2-29.4-5.2c-26.1,0-45.1,15.2-45.1,36.4c0,14.7,6,21.7,25.6,30.6l15.7,7.2c16.2,7.3,20.9,12.5,20.9,22.9
	c0,12.2-10,21.4-23.6,21.4c-13.9,0-24.1-9.7-27.4-26.1l-0.5-4.2c-1-3.7-2.5-5.2-5.7-5.2c-5,0-6,1.5-6,10.4v23.4c0,2.3,0.5,3,3.5,4.2
	c9.2,4.5,22.2,7.2,33.1,7.2c27.6,0,47.3-15.7,47.3-38.6c0-8.7-3.7-17.4-9.5-23.2c-5.5-5-10.2-7.7-25.6-14.7l-13.4-5.7
	c-10.5-4.7-15.2-10.2-15.2-17.4c0-11.7,8.7-19.2,22.2-19.2c12.2,0,20.2,7,23.2,19.7l0.8,3.7c1,4.2,2.5,5.7,5.5,5.7
	c4.5,0,5.5-1.8,5.5-9.2L690.4,1682.4L690.4,1682.4z M1079,1846c-8.9,0-29.9-8.2-46.3-18.2c-14.4-8.7-25.6-16.9-36.1-26.9
	c24.1-7,41.6-18.2,57.3-36.9c15.2-18.2,22.4-38.8,22.4-65c0-26.4-8-49.3-23.4-65.5c-18.7-20.4-46.8-31.4-79.7-31.4
	c-64.7,0-108.3,41.6-108.3,103.3c0,54.8,36.4,92.4,94.6,97.6c16.4,17,29.6,26.7,48.8,36.4c21.2,10.5,43.1,16.4,62,16.4
	c14.2,0,20.7-1.8,20.4-5.7c0-2.7-3.2-4.2-7.5-4.2L1079,1846L1079,1846z M1174.3,1769c-14.9,12.2-20.2,14.7-29.9,14.7
	c-11.9,0-19.2-5-21.4-14.4c-0.8-3.7-1-8-1-20.9v-72.7c0-2-1.3-3.7-3-3.7c-0.8,0-0.8,0-3.5,1.2l-2.5,1c-4.7,1.8-8.5,2.3-18.2,3
	l-4.7,0.3c-3.2,0.3-5.2,1.8-5.2,4.5c0,3,2.2,4.5,6.5,4.5h3c3.5,0,6.2,1,7.2,2.7c0.8,1.8,0.8,1.8,1,15.7v53c0,15.4,1.3,22.1,6,28.6
	c5,8,13.4,11.7,25.1,11.7c15.2,0,28.1-5.5,40.6-17.9l-0.2,12v1.2c0,3.5,1.2,5.2,3.2,5.2c1,0,2.1-0.2,3-0.7l2.7-1.2
	c4.7-3,13.4-6,18.9-6.7l4.3-1c4.2-0.8,5.5-1.8,5.5-4.5c0-3.5-1.3-4.2-5.7-4.2h-3c-8.7,0-8.7,0-9-16.2v-87.9c0-2.5-0.8-3.7-2.7-3.7
	c-0.8,0-1.5,0-2,0.3l-2,1c-7.7,3.2-15.7,4.7-25.1,4.7h-3.5c-2,0-3.7,2.2-3.7,4.5c0,3.2,2,4.3,7.5,4.3h3c8.9,0,8.9,0,8.9,19.2
	L1174.3,1769L1174.3,1769L1174.3,1769z M1290.1,1725.2c-38.4,15.2-59.8,34.1-59.8,52.8c0,12.7,8.7,21.4,21.2,21.4
	c13.7,0,28.4-7.2,37.8-18.7c0,12.2,5,17.9,14.4,17.9c7.5,0,14.2-3.2,19.2-8.7c4.2-4.5,8.2-11.9,8.2-16.2c0-2-2.2-3.7-4.5-3.7
	c-1.6,0.1-3,1-3.7,2.5l-1.5,3.2c-2,4.2-4.7,6.7-7.2,6.7s-4.5-1.8-5-4.3c-0.5-2.5-0.5-2.5-0.5-20.2l0.5-54.8v-2
	c0-14.7-1.5-19.4-7.7-24.2c-4.2-3.2-9.5-4.5-18.9-4.5c-13.9,0-26.4,6-35.8,16.4c-6,7-11.9,19.2-11.9,24.4c0,3,2.2,4.7,6,4.7h4.5
	c4.7,0,5.7-1.2,6.7-6.7l1-4.5c3.2-15.2,12.5-24.9,24.6-24.9c8.7,0,12.5,6.5,12.5,21.4L1290.1,1725.2L1290.1,1725.2L1290.1,1725.2z
	 M1357.8,1765.1c0,18.4-0.5,19.7-10.7,21.2l-4.2,0.7c-4,0.8-5.7,2-5.7,5c0,2.5,2.5,4.7,5.2,4.2l2-0.3h3.5c0.5,0,3.7-0.3,8.5-0.5
	l14.7-0.3c8,0,8,0,10.2,0.3c3,0.2,5.5,0.5,6,0.5h3.2c0,0,0.5,0,1.2,0.3c2.5,0.8,5.2-1.5,5.5-4.2c0.3-3-1.8-4.2-6-4.7l-4.5-0.7
	c-8-1-9.5-4-9.5-18.7v-162.1c0-6.5-0.5-8-3.2-8c-1.2-0.1-2.4,0.4-3.2,1.2l-2.5,2c-6.1,5.2-13.7,8.6-21.7,9.7l-1.8,0.5
	c-2.3,0.5-3.7,1.8-3.7,4c0,3.2,1.8,4.5,6,4.5h4.5c2,0,4.5,2.2,5.2,4.5c0.7,2,1,8.7,1,19.7L1357.8,1765.1L1357.8,1765.1z
	 M1424.5,1765.1c0,18.4-0.5,19.7-8.7,20.9l-4.5,0.5c-4.5,1-6.2,2.2-6.2,5.5c0,2.7,1.5,4,4.7,4.2h1.2l4.7-0.3
	c6.8-0.4,13.6-0.7,20.4-0.7c6.2,0,12.2,0.3,16.7,0.7l4,0.3h1.5c3.5-0.3,5-1.2,5-4.2c0-3.2-2-4.5-7.5-5.5l-3.2-0.5
	c-4.5-0.5-6.2-1.5-7-3.5c-1-2.3-1.5-11.2-1.5-21.4v-88.6c0-4-0.5-5.2-3.2-5.2c-1.2,0-2.2,0.5-2.7,1.5l-1.2,1.8
	c-5.2,7.2-13.2,14.2-19.9,16.7l-4,1.7c-4,1.8-4.5,2.3-4.5,4.5c0,3,1.5,4,5.5,4h3c6.7,0,7.5,2,7.5,17.4L1424.5,1765.1L1424.5,1765.1
	L1424.5,1765.1z M1434.7,1618.4c-7,0-12.5,6-12.5,13.4c0,7.7,5.5,13.9,12.5,13.9s12.4-6.2,12.4-13.9
	C1447.2,1624.6,1441.7,1618.4,1434.7,1618.4z M1494.7,1698.3h32.9v-12.5h-32.9l0.8-16.9l0.5-5c0.3-1.5,0.3-3,0.3-3.5
	c0-2.7-1.5-4.2-4-4.2c-1.8,0-3.2,1.2-4.2,4.5l-1.2,3.2c-3.5,9.7-13.4,20.6-21.7,24.6l-2.3,1c-3.5,1.8-4.5,2.5-4.5,4.7
	c0,3.5,1,4,7.7,4h9.5v53.3c0,20.7,0.8,26.1,3.2,33.1c3,8.7,11.2,13.7,22.9,13.7c12.2,0,26.7-8.5,26.7-15.7c0-1.7-1.2-3-2.7-3
	c-1,0-2,0.5-3.2,1l-2.5,1.8c-2.7,2-6.7,3-10.2,3c-11.2,0-14.9-7-14.9-29.6L1494.7,1698.3L1494.7,1698.3L1494.7,1698.3z M1602.3,1773
	l-21.7-66c-4.7-13.2-4.7-14-4.7-16.2c0-3,2-4.5,7.7-5.7l4-0.8c4.7-0.7,6-2,6-5c0-2.7-1.8-4.7-4.2-4.5c-0.3,0-1,0-1.8,0.3l-3.2,0.5
	c-7.7,1-12.7,1.2-17.7,1.2c-6.5-0.2-12.9-0.6-19.4-1l-3.7-0.7h-1.2c-3,0.5-4.5,1.8-4.5,4.5c0,2.5,1.3,3.7,5.2,4.7l4,1.5
	c4.7,1.3,6,3.5,11.7,18.9l33.6,95.6l-12,20.2c-8,14-20.7,18.4-23.7,18.4c-1,0-1.5-0.3-3.7-1.8l-2.3-1.5c-1.7-0.9-3.6-1.4-5.5-1.5
	c-6.2,0-11.2,5-11.2,11.1c0,0,0,0.1,0,0.1c0,7,5.7,12,13.2,12.2c7.7,0.5,16.7-1,26.9-9.2c8.2-6.5,16.2-20.9,29.6-52.5l37.1-87.4
	c8.5-19.4,8.2-21.7,13.9-23.4l2.8-0.8c3.7-1,5.2-2.2,5.2-5c0-2.5-1.5-3.7-4.5-3.7h-2l-3.5,0.2c-9.2,0.8-9.2,1-12.7,1
	c-2.8,0-7.5,0-14.9-1.2l-3.5-0.8h-1.7c-2.3,0-4.3,2.2-4.3,4.5c0,2.7,1.3,4,5.7,5l4,0.8c5.5,1.2,7,2.2,7,5.5c0,2.3,1.5,2.7-5.2,20.2
	L1602.3,1773L1602.3,1773z M1806.4,1621.9h15.4c14.2,0,31.9,2,36.8,5.7c6.2,4.7,10.2,12.7,11.7,23.9l0.8,5.2c0.5,3,2.5,5.2,5,5.2
	c3.5,0,4.7-2,4.7-6.2l-0.5-48.1c-0.2-5-1.2-6.7-4.7-6.7c-1.5,0-2.5,1-4,3l-1,1.2c-3.7,5.2-4.7,5.2-20.4,5.2h-111.3
	c-2.7,0-6,0-10.2-0.3c-4.7,0-6-0.8-9.2-5.5l-1.2-2c-0.6-1.1-1.7-1.7-3-1.8c-2.5,0-3.5,1.2-4.2,4.2l-13.7,48.3
	c-0.5,1.8-0.7,3.2-0.7,3.7c0,2,2.2,4,4.5,4c2,0,3.7-1.1,4.7-2.7l1.2-3.2c10.5-25.9,21.2-32.9,44.8-33.1l31.9-0.3v145.9
	c0,13.7-2.2,15.9-16.9,17.9l-5.2,0.5c-6.2,1-7.7,2-7.7,5.2c0,3.5,0.7,4.2,6.2,5.2h1l4.5-0.5c10.6-0.7,21.2-1,31.9-1
	c10,0,10.5,0,25.4,1l6.5,0.5h1.2c3.5,0.3,5.5-2,5.5-5.2c0-3.5-2.5-5.2-7.7-5.7l-7.7-0.5c-14.2-1.5-14.2-1.5-14.2-34.1L1806.4,1621.9
	L1806.4,1621.9L1806.4,1621.9z M1897.5,1765.1c0,18.4-0.5,19.7-8.5,20.9l-4.7,0.5c-4.5,1-6.2,2.2-6.2,5.5c0,2.7,1.5,4,4.7,4.2h1.5
	l4.7-0.3c6.8-0.4,13.6-0.7,20.4-0.7c6,0,12.2,0.3,16.7,0.7l3.7,0.3h1.5c3.5-0.3,5-1.2,5-4.2c0-3.2-2-4.5-7.5-5.5l-3-0.5
	c-4.7-0.5-6.5-1.5-7.2-3.5c-1-2.3-1.5-11.2-1.5-21.4v-88.6c0-4-0.5-5.2-3.2-5.2c-1.2,0-2.2,0.5-2.7,1.5l-1.2,1.8
	c-5,7.2-13.2,14.2-19.9,16.7l-3.7,1.7c-4.2,1.8-4.7,2.3-4.7,4.5c0,3,1.5,4,5.7,4h2.7c6.7,0,7.5,2,7.5,17.4V1765.1L1897.5,1765.1z
	 M1908,1618.4c-7.2,0-12.7,6-12.7,13.4c0,7.7,5.5,13.9,12.7,13.9c6.7,0,12.2-6.2,12.2-13.9C1920.2,1624.6,1914.7,1618.4,1908,1618.4
	z M1982.7,1702.6c12.4-11,18.2-13.7,27.6-13.7c9.2,0,16.2,4.2,18.9,11.5c1.8,4,2.8,11.5,2.8,22.9v42c0,17.7-0.8,18.7-9.5,20.4
	l-5,0.8c-4.3,1-6.5,2.5-6.5,5c0,2.5,2.7,4.7,5.5,4.7h3.2l4.2-0.5c11.2-0.7,12.4-0.7,17.4-0.7c5.7,0,15.4,0.5,19.2,0.7l3.7,0.5
	c0.5,0.3,1.1,0.5,1.8,0.5c2.5,0.3,5-2.3,5-4.7c0-3-2-4.2-6.2-5l-3-0.7c-10.2-1.8-10.2-1.8-10.2-20.4v-62.5
	c8.7-10.2,16.2-14.2,26.9-14.2c15.4,0,21.9,9.7,21.9,32.4v44.3c0,17.4-0.5,18.9-8,20.2l-5.5,1c-4.2,0.8-6,2.3-6,5
	c0,2.5,1.7,4.7,3.7,4.7l4.2-0.5l4-0.5c6.5-0.5,12.2-0.7,17.2-0.7c6,0,14.2,0.5,18.7,1l3.7,0.8h1.8c3,0,4.7-1.8,4.7-4.5
	c0-3-2-4.5-5.5-5l-4-0.7c-8.7-1.5-9.7-3.5-9.7-20.9v-44.3c0-18.2-1-25.6-4.7-32.6c-5.5-10-15.2-15.2-28.1-15.2
	c-13.9,0-26.4,6.2-37.6,19.7c-3.7-12.4-14.4-19.9-29.1-19.9c-13.7,0-27.9,6.5-37.4,17.4v-6.5l0.5-7v-3.2l0.3-3.2
	c0-1.8-1.5-3.2-3-3.2c-1.8,0-3.2,1.2-4,2.5l-1,1.8c-4.7,8-11.2,13.4-20.4,17l-2.5,0.7c-3.2,1-4.5,2.2-4.5,4.7c0,2.2,2.3,4.2,4.7,4.2
	h2.5c7.5,0,8,1.5,8,20.4v45.1c0,18.7-0.8,20.9-8.7,22.4l-4.5,1c-4.5,0.8-6,1.8-6,4.7c0,2,2,4.2,4.2,4.2c1.5,0,2,0,3.5-0.3l4.2-0.5
	c4.2-0.5,11.5-0.8,18.9-0.8c4.5,0,6.5,0.3,13.4,1l3.5,0.3c1.5,0.3,2.7,0.3,4,0.3c2.5,0,4.7-1.8,4.7-4c0-2.5-1.8-4.2-5.2-5l-5-1
	c-7.2-1.2-8-3.5-8-22.4L1982.7,1702.6L1982.7,1702.6L1982.7,1702.6z"/>
<path class="st1" d="M886.8,642.3h333.3v333.3H886.8V642.3z"/>
<path class="st0" d="M1269.9,642.3h333.3v333.3h-333.3V642.3z"/>
<path class="st2" d="M1404.6,841.2v92.1h64.2v-92.1h92.1V777h-92.1v-92.1h-64.2V777h-92.1v64.2H1404.6z M1021.5,748.6v185h64v-185
	h92.4v-64H929.1v64H1021.5z"/>
<path class="st1" d="M2241.8,1161.1h147.9v-76.9h-410v76.9h147.6v298.3h114.5V1161.1z M372.7,1161.1h147.6v-76.9h-410v76.9h147.9
	v298.3h114.5V1161.1z M1555.5,1271.6c0,119,83.2,197.4,215.3,197.4c132.5,0,214.9-78.4,214.9-197.4c0-118.8-82.4-197.2-214.9-197.2
	C1638.6,1074.5,1555.5,1152.9,1555.5,1271.6L1555.5,1271.6z M1132.5,1329.4v7.7c0,83.1,64,132.2,185.2,132.2
	c126.5,0,191.2-45.3,191.2-127.9c0-66-49.5-103.6-140.2-113.8c-34.3-4-109.3-14.2-106.5-44.8c2-26.4,17.9-36.4,53-39.3
	c47.3-3.7,76.2,23.9,79.4,56.3h110.8v-3.2c0-56-65.5-124.5-191.7-122c-108,2-170.5,54-169,124.7c1.2,65.2,42.6,82.4,131.7,105
	c35.6,9.2,114.3,12.5,114.3,57.5c0,29.1-20.2,45.3-68.2,46.3c-65.5,1.2-77.9-46.1-77.9-75.2v-3.5H1132.5z M560.9,1459.3h117.3
	v-375.2H560.9V1459.3L560.9,1459.3z M725,1329.4v7.7c0,83.1,64.2,132.2,185.7,132.2c126.2,0,191-45.3,191-127.9
	c0-66-49.5-103.6-140.2-113.8c-34.4-4-109-14.2-106.6-44.8c2.2-26.4,17.9-36.4,53.3-39.3c47.1-3.7,76.2,23.9,79.2,56.3h110.8v-3.2
	c0-56-65.2-124.5-191.4-122c-108.5,2-170.8,54-169.5,124.7c1.2,65.2,42.8,82.4,132.2,105c35.6,9.2,114.3,12.5,114.3,57.5
	c0,29.1-20.2,45.3-68.2,46.3c-65.5,1.2-78.2-46.1-78.2-75.2v-3.5H725L725,1329.4z"/>
<path class="st2" d="M1770.8,1392.1c-58.7,0-95.4-45.6-95.4-120.5c0-74.7,36.6-120.2,95.4-120.2c58.5,0,94.9,45.1,94.9,120.2
	C1865.7,1346.5,1829.3,1392.1,1770.8,1392.1z M2177.9,1703.3c9.7-16.9,18.9-23.6,32.3-23.6c12.5,0,21.2,6.7,21.2,15.9
	c0,3.5-1.5,5.7-3.5,6.5c-2.7,1-18.2,1.5-28.6,1.2L2177.9,1703.3L2177.9,1703.3L2177.9,1703.3z M971.7,1612.2
	c45.1,0,73.7,34.9,73.7,89.4c0,55.3-29.6,91.9-73.9,91.9c-13.1,0.1-25.9-3.3-37.3-9.7c-24.9-13.4-37.8-41.1-37.8-79.7
	c0-25.4,5.2-46.8,15.9-62.2C924.4,1623.6,947,1612.2,971.7,1612.2L971.7,1612.2z M1289.3,1761.3c0,4.5-1,7-3.7,10.5
	c-5.7,6.7-15.9,12.2-22.4,12.2c-6.5,0-11.4-5.2-11.4-12.9c0-8,5.2-16.2,14.9-23.9c5.5-4.2,11.5-7.2,23.2-12.9L1289.3,1761.3z"/>
</svg>
